<svg style="display: none">
    <symbol id="linkedin" viewBox="0 0 448 512">
        <path
            d="M416 32H31.9C14.3 32 0 46.5 0 64.3v383.4C0 465.5 14.3 480 31.9 480H416c17.6 0 32-14.5 32-32.3V64.3c0-17.8-14.4-32.3-32-32.3zM135.4 416H69V202.2h66.5V416zm-33.2-243c-21.3 0-38.5-17.3-38.5-38.5S80.9 96 102.2 96c21.2 0 38.5 17.3 38.5 38.5 0 21.3-17.2 38.5-38.5 38.5zm282.1 243h-66.4V312c0-24.8-.5-56.7-34.5-56.7-34.6 0-39.9 27-39.9 54.9V416h-66.4V202.2h63.7v29.2h.9c8.9-16.8 30.6-34.5 62.9-34.5 67.2 0 79.7 44.3 79.7 101.9V416z" />
    </symbol>
    <symbol id="facebook" viewBox="0 0 448 512">
        <path
            d="M64 32C28.7 32 0 60.7 0 96V416c0 35.3 28.7 64 64 64h98.2V334.2H109.4V256h52.8V222.3c0-87.1 39.4-127.5 125-127.5c16.2 0 44.2 3.2 55.7 6.4V172c-6-.6-16.5-1-29.6-1c-42 0-58.2 15.9-58.2 57.2V256h83.6l-14.4 78.2H255V480H384c35.3 0 64-28.7 64-64V96c0-35.3-28.7-64-64-64H64z" />
    </symbol>
    <symbol id="gmail" viewBox="0 0 448 512">
        <path
            d="M64 32C28.7 32 0 60.7 0 96L0 416c0 35.3 28.7 64 64 64l320 0c35.3 0 64-28.7 64-64l0-320c0-35.3-28.7-64-64-64L64 32zM218 271.7L64.2 172.4C66 156.4 79.5 144 96 144l256 0c16.5 0 30 12.4 31.8 28.4L230 271.7c-1.8 1.2-3.9 1.8-6 1.8s-4.2-.6-6-1.8zm29.4 26.9L384 210.4 384 336c0 17.7-14.3 32-32 32L96 368c-17.7 0-32-14.3-32-32l0-125.6 136.6 88.2c7 4.5 15.1 6.9 23.4 6.9s16.4-2.4 23.4-6.9z" />
    </symbol>
    <symbol id="github" viewBox="0 0 448 512">
        <path
            d="M448 96c0-35.3-28.7-64-64-64H64C28.7 32 0 60.7 0 96V416c0 35.3 28.7 64 64 64H384c35.3 0 64-28.7 64-64V96zM265.8 407.7c0-1.8 0-6 .1-11.6c.1-11.4 .1-28.8 .1-43.7c0-15.6-5.2-25.5-11.3-30.7c37-4.1 76-9.2 76-73.1c0-18.2-6.5-27.3-17.1-39c1.7-4.3 7.4-22-1.7-45c-13.9-4.3-45.7 17.9-45.7 17.9c-13.2-3.7-27.5-5.6-41.6-5.6s-28.4 1.9-41.6 5.6c0 0-31.8-22.2-45.7-17.9c-9.1 22.9-3.5 40.6-1.7 45c-10.6 11.7-15.6 20.8-15.6 39c0 63.6 37.3 69 74.3 73.1c-4.8 4.3-9.1 11.7-10.6 22.3c-9.5 4.3-33.8 11.7-48.3-13.9c-9.1-15.8-25.5-17.1-25.5-17.1c-16.2-.2-1.1 10.2-1.1 10.2c10.8 5 18.4 24.2 18.4 24.2c9.7 29.7 56.1 19.7 56.1 19.7c0 9 .1 21.7 .1 30.6c0 4.8 .1 8.6 .1 10c0 4.3-3 9.5-11.5 8C106 393.6 59.8 330.8 59.8 257.4c0-91.8 70.2-161.5 162-161.5s166.2 69.7 166.2 161.5c.1 73.4-44.7 136.3-110.7 158.3c-8.4 1.5-11.5-3.7-11.5-8zm-90.5-54.8c-.2-1.5 1.1-2.8 3-3.2c1.9-.2 3.7 .6 3.9 1.9c.3 1.3-1 2.6-3 3c-1.9 .4-3.7-.4-3.9-1.7zm-9.1 3.2c-2.2 .2-3.7-.9-3.7-2.4c0-1.3 1.5-2.4 3.5-2.4c1.9-.2 3.7 .9 3.7 2.4c0 1.3-1.5 2.4-3.5 2.4zm-14.3-2.2c-1.9-.4-3.2-1.9-2.8-3.2s2.4-1.9 4.1-1.5c2 .6 3.3 2.1 2.8 3.4c-.4 1.3-2.4 1.9-4.1 1.3zm-12.5-7.3c-1.5-1.3-1.9-3.2-.9-4.1c.9-1.1 2.8-.9 4.3 .6c1.3 1.3 1.8 3.3 .9 4.1c-.9 1.1-2.8 .9-4.3-.6zm-8.5-10c-1.1-1.5-1.1-3.2 0-3.9c1.1-.9 2.8-.2 3.7 1.3c1.1 1.5 1.1 3.3 0 4.1c-.9 .6-2.6 0-3.7-1.5zm-6.3-8.8c-1.1-1.3-1.3-2.8-.4-3.5c.9-.9 2.4-.4 3.5 .6c1.1 1.3 1.3 2.8 .4 3.5c-.9 .9-2.4 .4-3.5-.6zm-6-6.4c-1.3-.6-1.9-1.7-1.5-2.6c.4-.6 1.5-.9 2.8-.4c1.3 .7 1.9 1.8 1.5 2.6c-.4 .9-1.7 1.1-2.8 .4z" />
    </symbol>
    <symbol id="home" viewBox="0 -960 960 960">
        <path
            d="M244.63-202.87h90.22V-400q0-23.34 16.62-39.96 16.63-16.63 39.96-16.63h177.14q23.33 0 39.96 16.63 16.62 16.62 16.62 39.96v197.13h90.22V-556.8L480-732.89 244.63-556.88v354.01Zm-113.17 0V-556.8q0-27.09 12.02-51.14 12.02-24.04 33.61-39.6l235.37-176.33Q443.37-846.3 480-846.3q36.63 0 67.54 22.43l235.37 176.33q21.59 15.56 33.61 39.6 12.02 24.05 12.02 51.14v353.93q0 47.87-32.65 80.52T715.37-89.7H572.15q-23.67 0-40.13-16.62-16.45-16.62-16.45-39.96V-347h-71.14v200.72q0 23.34-16.45 39.96-16.46 16.62-40.13 16.62H244.63q-47.87 0-80.52-32.65t-32.65-80.52ZM480-468Z" />
    </symbol>
    <symbol id="logut" viewBox="0 -960 960 960">
        <path
            d="M480-88v-106h286v-572H480v-106h286q43.72 0 74.86 31.14T872-766v572q0 43.73-31.14 74.86Q809.72-88 766-88H480ZM366-240l-76-78 110-110H88v-106h312L290-644l76-76 240 240-240 240Z" />
    </symbol>
    <symbol id="google" viewBox="0 0 488 512">
        <path
            d="M488 261.8C488 403.3 391.1 504 248 504 110.8 504 0 393.2 0 256S110.8 8 248 8c66.8 0 123 24.5 166.3 64.9l-67.5 64.9C258.5 52.6 94.3 116.6 94.3 256c0 86.5 69.1 156.6 153.7 156.6 98.2 0 135-70.4 140.8-106.9H248v-85.3h236.1c2.3 12.7 3.9 24.9 3.9 41.4z" />
    </symbol>
    <symbol id="facebook" viewBox="0 0 488 512">
        <path
            d="M512 256C512 114.6 397.4 0 256 0S0 114.6 0 256C0 376 82.7 476.8 194.2 504.5V334.2H141.4V256h52.8V222.3c0-87.1 39.4-127.5 125-127.5c16.2 0 44.2 3.2 55.7 6.4V172c-6-.6-16.5-1-29.6-1c-42 0-58.2 15.9-58.2 57.2V256h83.6l-14.4 78.2H287V510.1C413.8 494.8 512 386.9 512 256h0z" />
    </symbol>
    <symbol id="github" viewBox="0 0 488 512">
        <path
            d="M165.9 397.4c0 2-2.3 3.6-5.2 3.6-3.3 .3-5.6-1.3-5.6-3.6 0-2 2.3-3.6 5.2-3.6 3-.3 5.6 1.3 5.6 3.6zm-31.1-4.5c-.7 2 1.3 4.3 4.3 4.9 2.6 1 5.6 0 6.2-2s-1.3-4.3-4.3-5.2c-2.6-.7-5.5 .3-6.2 2.3zm44.2-1.7c-2.9 .7-4.9 2.6-4.6 4.9 .3 2 2.9 3.3 5.9 2.6 2.9-.7 4.9-2.6 4.6-4.6-.3-1.9-3-3.2-5.9-2.9zM244.8 8C106.1 8 0 113.3 0 252c0 110.9 69.8 205.8 169.5 239.2 12.8 2.3 17.3-5.6 17.3-12.1 0-6.2-.3-40.4-.3-61.4 0 0-70 15-84.7-29.8 0 0-11.4-29.1-27.8-36.6 0 0-22.9-15.7 1.6-15.4 0 0 24.9 2 38.6 25.8 21.9 38.6 58.6 27.5 72.9 20.9 2.3-16 8.8-27.1 16-33.7-55.9-6.2-112.3-14.3-112.3-110.5 0-27.5 7.6-41.3 23.6-58.9-2.6-6.5-11.1-33.3 2.6-67.9 20.9-6.5 69 27 69 27 20-5.6 41.5-8.5 62.8-8.5s42.8 2.9 62.8 8.5c0 0 48.1-33.6 69-27 13.7 34.7 5.2 61.4 2.6 67.9 16 17.7 25.8 31.5 25.8 58.9 0 96.5-58.9 104.2-114.8 110.5 9.2 7.9 17 22.9 17 46.4 0 33.7-.3 75.4-.3 83.6 0 6.5 4.6 14.4 17.3 12.1C428.2 457.8 496 362.9 496 252 496 113.3 383.5 8 244.8 8zM97.2 352.9c-1.3 1-1 3.3 .7 5.2 1.6 1.6 3.9 2.3 5.2 1 1.3-1 1-3.3-.7-5.2-1.6-1.6-3.9-2.3-5.2-1zm-10.8-8.1c-.7 1.3 .3 2.9 2.3 3.9 1.6 1 3.6 .7 4.3-.7 .7-1.3-.3-2.9-2.3-3.9-2-.6-3.6-.3-4.3 .7zm32.4 35.6c-1.6 1.3-1 4.3 1.3 6.2 2.3 2.3 5.2 2.6 6.5 1 1.3-1.3 .7-4.3-1.3-6.2-2.2-2.3-5.2-2.6-6.5-1zm-11.4-14.7c-1.6 1-1.6 3.6 0 5.9 1.6 2.3 4.3 3.3 5.6 2.3 1.6-1.3 1.6-3.9 0-6.2-1.4-2.3-4-3.3-5.6-2z" />
    </symbol>
</svg>